<?xml version="1.0" standalone="no"?>
<!DOCTYPE svg PUBLIC "-//W3C//DTD SVG 20010904//EN"
 "http://www.w3.org/TR/2001/REC-SVG-20010904/DTD/svg10.dtd">
<svg version="1.0" xmlns="http://www.w3.org/2000/svg"
 width="480.000000pt" height="480.000000pt" viewBox="0 0 480.000000 480.000000"
 preserveAspectRatio="xMidYMid meet">
<metadata>
Created by potrace 1.15, written by Peter Selinger 2001-2017
</metadata>
<g transform="translate(0.000000,480.000000) scale(0.100000,-0.100000)"
fill="#000000" stroke="none">
<path d="M1874 4525 c-7 -19 -14 -43 -14 -53 0 -11 -17 -31 -40 -47 -22 -15
-43 -38 -46 -49 -4 -16 -23 -28 -67 -44 -83 -30 -282 -136 -282 -150 0 -6 -6
-17 -12 -23 -29 -29 -10 -28 32 1 25 17 98 57 162 88 65 32 137 70 160 86 37
25 46 27 73 18 22 -8 29 -8 24 -1 -13 21 41 -3 83 -37 23 -19 61 -43 83 -53
l41 -18 -25 -21 c-35 -27 -152 -55 -218 -51 -37 1 -67 -4 -98 -18 -44 -21
-110 -22 -110 -2 0 18 -29 9 -57 -17 -15 -15 -42 -32 -58 -40 -17 -7 -42 -23
-55 -37 -27 -26 -62 -47 -79 -47 -24 0 -9 34 29 69 46 42 51 55 14 41 -38 -15
-67 -13 -61 4 8 20 -34 6 -107 -35 -45 -27 -61 -42 -70 -70 -7 -20 -40 -87
-73 -150 -81 -153 -153 -341 -153 -399 0 -14 14 -51 30 -83 l31 -57 -32 -18
c-94 -52 -105 -65 -128 -156 -27 -109 -27 -113 9 -121 32 -7 39 -22 15 -32
-14 -5 -14 -8 1 -24 16 -18 17 -18 45 2 36 25 38 16 4 -15 -22 -20 -24 -27
-15 -50 5 -15 10 -35 9 -44 0 -9 -7 2 -15 25 -15 40 -16 41 -52 36 -20 -3 -42
-11 -48 -17 -13 -12 -39 -154 -54 -296 -5 -52 -24 -156 -41 -230 -18 -80 -28
-150 -26 -172 5 -38 -6 -79 -35 -133 -26 -49 -48 -135 -48 -189 0 -27 -9 -75
-19 -105 -11 -31 -24 -87 -30 -126 -16 -97 -31 -173 -42 -219 -6 -21 -15 -77
-20 -125 -5 -47 -13 -120 -18 -162 -7 -61 -15 -86 -44 -132 -82 -127 -90 -151
-84 -251 3 -70 -1 -116 -18 -201 -13 -63 -25 -160 -27 -228 l-4 -119 80 7
c192 16 416 61 416 84 0 17 -26 129 -42 183 -7 23 -8 66 -4 115 8 92 60 210
124 283 52 60 66 90 86 185 28 131 45 182 77 234 31 49 64 134 140 361 22 63
46 129 54 147 8 17 15 42 15 55 0 29 38 236 45 248 3 5 16 52 30 105 13 54 29
103 36 111 6 7 26 41 45 76 l34 63 -1 -110 c0 -69 -5 -123 -14 -145 -37 -96
-47 -129 -52 -175 -5 -45 -4 -48 9 -31 19 24 53 23 110 -2 48 -21 72 -50 62
-75 -5 -14 24 -53 125 -168 39 -43 52 -67 32 -55 -5 4 -7 -3 -4 -13 3 -12 26
-28 58 -41 l54 -22 -20 -21 c-10 -11 -19 -29 -19 -39 0 -10 -5 -18 -10 -18 -6
0 -10 -6 -9 -12 3 -24 -1 -39 -8 -35 -5 3 -9 -6 -10 -20 0 -14 -5 -28 -11 -32
-5 -3 -11 -11 -13 -18 -2 -7 -9 -9 -15 -5 -8 5 1 34 28 92 22 47 41 92 43 100
5 25 -37 19 -64 -8 l-24 -24 32 7 c31 7 33 6 26 -16 -11 -35 -28 -60 -19 -29
l6 25 -22 -23 c-12 -13 -32 -42 -46 -65 -13 -23 -27 -41 -31 -40 -4 1 -7 -7
-6 -18 2 -10 -2 -19 -7 -19 -5 0 -35 -34 -66 -75 -32 -42 -62 -74 -68 -72 -14
6 -39 -20 -27 -28 5 -3 16 -2 25 1 8 3 25 -1 38 -10 21 -15 22 -16 2 -16 -11
0 -30 -9 -42 -20 -20 -19 -24 -19 -51 -6 -16 9 -38 30 -49 48 -23 38 -36 153
-20 181 24 47 -9 21 -72 -55 -53 -63 -51 -93 14 -202 51 -85 142 -186 169
-186 4 0 5 -4 2 -10 -3 -5 0 -7 8 -5 7 3 31 -6 53 -21 21 -15 74 -42 116 -60
109 -46 139 -64 133 -74 -4 -6 1 -7 11 -3 13 5 15 3 9 -7 -5 -8 -4 -11 3 -6 6
3 18 -1 26 -10 9 -8 16 -13 16 -10 0 3 19 -4 43 -14 23 -10 59 -22 79 -25 21
-4 36 -10 34 -14 -2 -3 12 -6 32 -7 67 -2 212 -26 212 -36 0 -6 16 -7 38 -4
20 4 44 2 52 -4 13 -9 13 -10 0 -10 -13 0 -13 -1 0 -10 10 -6 -37 -8 -130 -7
-80 2 -150 6 -155 9 -6 3 -50 9 -99 13 -49 3 -112 12 -140 20 -28 8 -76 21
-106 29 -81 23 -73 11 10 -14 285 -85 777 -110 1085 -55 112 19 459 135 543
181 34 19 74 34 89 34 40 0 153 67 153 91 0 11 12 42 26 70 24 45 26 57 20
117 -4 37 -11 112 -16 167 -5 55 -14 114 -21 130 -7 17 -16 106 -20 210 -9
216 -30 458 -57 655 -11 80 -23 199 -27 265 -3 66 -8 140 -11 165 -5 44 -5 44
10 20 8 -14 15 -45 16 -70 0 -31 8 -57 25 -82 14 -20 25 -41 25 -46 0 -27 34
-115 54 -139 16 -19 28 -58 41 -125 11 -64 25 -108 40 -128 19 -26 22 -37 14
-63 -16 -55 -10 -100 25 -205 19 -57 42 -141 51 -187 27 -146 52 -210 100
-265 27 -30 46 -62 49 -82 19 -136 28 -183 42 -211 13 -24 15 -49 11 -111 -6
-86 2 -121 30 -130 23 -8 63 -77 63 -110 0 -14 -5 -57 -12 -95 -8 -50 -9 -82
-1 -115 9 -42 8 -48 -13 -74 -13 -15 -24 -30 -24 -34 0 -11 164 -66 247 -83
44 -9 110 -15 148 -13 l68 3 4 225 c2 124 5 245 6 270 1 25 -6 97 -16 160 -15
96 -25 130 -62 205 -43 86 -45 95 -45 175 0 46 -9 145 -21 220 -30 195 -79
470 -89 505 -38 128 -52 184 -69 280 -11 61 -31 142 -46 180 -39 101 -54 159
-66 255 -15 110 -31 159 -24 73 3 -47 1 -63 -8 -63 -8 0 -19 32 -30 84 -21
102 -21 106 -2 106 9 0 15 -9 15 -21 0 -12 5 -19 13 -16 21 7 -1 138 -58 337
-18 63 -36 138 -39 165 -11 74 -49 175 -120 315 -95 188 -94 186 -161 220 -76
38 -131 45 -225 27 l-75 -15 -35 37 c-20 20 -57 52 -83 71 -26 18 -47 37 -47
42 0 5 13 0 30 -12 21 -15 35 -18 46 -12 13 7 10 10 -16 16 -18 3 -31 9 -28
12 10 9 92 13 103 5 18 -14 45 -21 45 -12 0 5 -10 12 -22 15 -32 9 -118 118
-118 150 0 40 -39 60 -97 51 -127 -20 -512 -21 -659 -1 -60 9 -141 17 -180 18
-40 2 -70 6 -68 9 5 9 -34 19 -78 19 -20 0 -83 16 -141 35 -57 19 -110 35
-116 35 -7 0 -19 -16 -27 -35z m-35 -420 c13 -36 9 -55 -13 -55 -7 0 -35 -11
-62 -25 -27 -14 -57 -25 -66 -25 -9 0 -20 -5 -23 -10 -4 -6 -24 -19 -45 -30
l-40 -20 -15 37 c-27 65 -25 76 18 87 26 7 44 6 55 0 23 -15 92 13 92 37 0 17
36 36 70 38 9 1 21 -14 29 -34z m-284 -115 c9 -27 14 -53 11 -58 -3 -5 -24
-15 -48 -22 -24 -8 -49 -23 -57 -33 -8 -11 -43 -33 -79 -49 -72 -33 -70 -34
-98 40 -16 41 -16 43 2 57 31 24 63 29 82 12 15 -13 19 -13 31 0 8 9 24 13 39
10 33 -6 75 39 61 65 -7 12 -4 20 8 27 24 13 29 8 48 -49z m495 -9 c-33 -48
-77 -149 -105 -246 -54 -182 -44 -379 31 -602 124 -371 361 -647 694 -807 74
-36 105 -56 95 -60 -9 -3 -29 -3 -43 0 -22 5 -24 3 -12 -6 11 -9 12 -13 2 -17
-6 -2 -10 -8 -7 -13 7 -11 -14 -111 -27 -126 -5 -8 -3 -18 7 -28 19 -18 40
-22 29 -4 -5 7 -3 8 5 3 8 -5 9 -11 3 -17 -10 -10 -219 94 -234 116 -4 6 -8 7
-8 3 0 -5 -13 0 -29 9 -17 10 -27 22 -24 28 4 5 0 7 -10 3 -9 -3 -34 4 -56 16
-39 21 -52 37 -31 37 6 0 10 -4 10 -9 0 -8 53 -34 75 -37 6 0 16 -2 23 -2 7
-1 10 -6 7 -12 -4 -6 1 -7 11 -3 12 4 15 3 10 -5 -5 -8 -1 -10 10 -5 12 4 14
8 6 11 -10 3 -10 7 0 20 12 15 11 16 -4 4 -21 -16 -44 -6 -29 12 6 7 9 44 7
83 -4 87 1 98 34 73 14 -10 21 -22 17 -27 -5 -4 -12 -1 -17 7 -6 8 -10 10 -10
4 0 -20 23 -34 37 -23 20 17 16 25 -20 46 -32 19 -63 20 -51 2 3 -5 -4 -9 -15
-9 -24 0 -35 15 -24 33 15 24 11 38 -21 62 -41 31 -55 32 -30 3 15 -19 16 -20
2 -9 -12 9 -18 10 -18 2 0 -6 -5 -11 -12 -11 -6 0 -8 3 -5 7 4 3 1 13 -6 21
-8 11 -8 14 0 9 23 -14 25 15 2 39 -18 19 -25 22 -38 11 -12 -9 -13 -9 -7 1 4
7 2 12 -4 12 -7 0 -10 6 -7 14 3 8 0 19 -6 24 -9 8 -12 1 -12 -26 1 -21 4 -42
8 -49 4 -6 0 -18 -8 -26 -20 -21 -19 -34 5 -40 22 -6 27 -32 9 -43 -7 -4 -16
2 -22 12 -10 18 -11 17 -17 -6 -8 -29 5 -51 26 -43 8 3 14 0 14 -6 0 -6 -6
-10 -12 -9 -8 2 -12 -5 -10 -17 2 -11 -1 -16 -5 -10 -14 18 -116 46 -128 34
-7 -7 -4 -8 9 -3 14 5 17 4 12 -4 -4 -7 0 -15 11 -19 10 -4 22 -11 26 -17 6
-7 7 -4 3 7 -7 22 1 22 42 -3 17 -11 32 -27 32 -35 0 -8 8 -15 18 -15 15 0 15
2 2 11 -12 9 -11 9 5 4 39 -15 78 -18 71 -6 -5 7 -1 9 9 5 14 -6 14 -8 -2 -19
-12 -9 -25 -10 -41 -4 -33 13 -36 11 -21 -8 8 -9 -51 17 -130 57 -133 68 -142
75 -116 82 16 4 32 5 37 2 4 -3 8 -1 8 5 0 6 -12 17 -27 25 l-28 15 43 7 c39
6 42 9 42 38 0 42 -10 76 -22 76 -6 0 -8 -14 -5 -35 4 -25 2 -35 -7 -35 -19 0
-27 12 -16 25 12 15 28 120 22 150 -2 15 0 25 7 25 6 0 11 8 11 18 0 14 -2 15
-10 2 -5 -8 -10 -10 -10 -5 0 6 4 16 8 23 6 9 12 5 22 -13 7 -14 17 -25 22
-25 4 0 8 -9 8 -20 0 -11 6 -20 14 -20 19 0 14 30 -8 46 -26 19 -57 81 -49
100 5 13 3 15 -7 9 -8 -5 -11 -4 -7 2 3 5 -13 50 -37 98 l-44 89 -21 -44 c-11
-24 -21 -50 -21 -57 0 -7 -4 -13 -10 -13 -5 0 -10 11 -10 25 0 14 5 25 10 25
6 0 10 10 10 23 0 13 5 28 11 34 7 7 9 20 5 30 -6 15 -9 15 -17 3 -8 -11 -9
-9 -4 9 9 28 9 90 1 98 -3 3 -5 -11 -4 -31 1 -20 -3 -41 -8 -46 -5 -5 -8 17
-7 58 2 47 0 61 -6 47 l-10 -20 -1 20 c-2 17 -3 16 -10 -5 -4 -14 -8 -34 -8
-45 l-1 -20 9 20 c5 11 9 15 9 8 1 -6 4 -19 7 -27 5 -12 2 -15 -11 -9 -16 5
-17 2 -11 -23 4 -16 13 -32 19 -36 7 -4 8 -8 2 -8 -13 0 -10 -97 4 -127 6 -13
16 -33 22 -46 7 -16 7 -37 -2 -72 -13 -55 -16 -80 -23 -172 -3 -35 -7 -67 -11
-73 -3 -5 1 -10 10 -10 14 0 13 -4 -5 -30 l-21 -29 32 -16 c17 -9 29 -19 26
-22 -12 -12 -229 125 -220 139 3 7 1 8 -5 4 -23 -14 -52 13 -52 49 0 42 -29
60 -136 85 -75 18 -93 12 -95 -27 0 -11 -2 -13 -6 -5 -3 7 0 25 6 40 6 15 13
72 17 127 3 55 7 129 9 164 4 62 13 89 22 63 4 -10 8 -10 19 -1 15 13 20 114
5 105 -5 -4 -11 -1 -13 5 -2 6 -13 -7 -23 -29 -11 -22 -24 -38 -29 -34 -5 3
-6 -3 -2 -14 6 -15 5 -16 -5 -7 -10 10 -10 18 -1 39 11 23 8 35 -28 106 -22
44 -40 87 -40 95 0 8 -5 11 -11 7 -12 -7 -3 -87 14 -119 9 -18 8 -18 -6 -7
-26 22 -85 135 -96 183 -5 24 -12 86 -15 137 l-5 92 52 26 c29 15 76 47 106
73 114 99 182 141 290 181 90 33 281 82 349 89 9 1 6 -9 -8 -28z m1173 -75
c31 -7 76 -26 99 -42 57 -39 198 -173 198 -188 0 -6 -7 -3 -15 8 -8 10 -19 15
-26 10 -8 -4 -10 -3 -5 4 5 8 2 10 -9 6 -11 -5 -14 -2 -9 12 5 16 4 16 -5 4
-8 -12 0 -25 38 -63 50 -49 88 -135 78 -174 -3 -13 -5 -10 -6 7 -1 21 -50 90
-64 90 -2 0 11 -37 29 -82 39 -97 44 -130 10 -67 -49 91 -61 109 -73 104 -7
-2 -16 3 -21 11 -7 13 -12 11 -26 -11 -11 -16 -23 -24 -32 -21 -9 3 -12 1 -9
-4 3 -6 -1 -10 -9 -10 -8 0 -18 5 -21 11 -4 6 -13 8 -20 5 -8 -3 -16 0 -19 7
-2 7 -5 4 -5 -6 -1 -10 -6 -15 -11 -12 -6 4 -9 3 -8 -2 1 -4 -6 -23 -15 -40
-10 -18 -15 -33 -13 -33 3 0 12 14 21 30 9 17 22 30 29 30 8 0 16 5 18 10 2 7
15 5 36 -5 53 -27 77 -97 51 -148 -28 -53 -61 -49 -161 18 -59 40 -84 52 -89
43 -5 -7 -1 -20 8 -30 14 -15 13 -17 -5 -15 -11 0 -18 6 -15 12 4 5 -5 0 -19
-12 -42 -39 -121 -23 -160 32 -9 12 -10 2 -2 -19 3 -9 9 -14 13 -13 3 2 16 -7
28 -20 25 -26 24 -27 -9 -13 -18 9 -32 6 -63 -9 -36 -18 -41 -18 -52 -4 -10
13 -13 12 -19 -11 -5 -20 -1 -33 15 -50 27 -29 27 -45 -1 -55 -27 -10 -44 -3
-29 12 6 6 11 20 11 31 0 28 -18 8 -29 -32 -8 -26 -7 -30 7 -25 15 4 15 3 2
-6 -8 -6 -10 -11 -5 -11 6 0 17 6 24 13 11 10 11 8 1 -13 -10 -20 -10 -23 0
-13 7 6 19 9 27 6 14 -6 38 -50 35 -65 -3 -11 12 -10 24 2 6 6 15 5 24 -1 13
-9 12 -10 -2 -5 -10 3 -20 1 -23 -5 -4 -5 2 -12 12 -15 10 -3 30 -12 45 -20
27 -15 46 -19 35 -7 -4 3 2 17 14 29 18 20 24 21 35 9 8 -7 14 -18 14 -24 0
-5 8 -15 18 -21 14 -9 13 -10 -8 -4 -22 6 -23 5 -11 -9 7 -9 16 -15 20 -13 4
3 13 0 21 -5 35 -24 -80 4 -147 36 -292 140 -392 507 -202 746 38 49 77 76
148 105 66 28 191 32 284 10z m-27 -1076 c-1 -16 -4 -30 -8 -30 -5 0 -8 -6 -8
-14 0 -7 -12 -39 -26 -70 -14 -31 -22 -61 -18 -68 4 -7 3 -9 -2 -5 -5 5 -16
-18 -25 -50 -10 -32 -18 -49 -19 -38 l-1 20 -8 -20 c-5 -11 -4 -30 0 -43 10
-25 -7 -68 -36 -92 -15 -12 -16 -10 -9 16 4 17 3 26 -2 21 -5 -5 -9 -42 -9
-82 0 -57 -5 -78 -19 -94 -11 -12 -15 -27 -12 -39 5 -16 1 -21 -21 -25 -33 -6
-44 0 -23 13 13 9 13 10 0 10 -11 0 -12 2 -3 8 7 4 9 13 4 21 -7 11 -11 10
-20 -5 -30 -54 -3 10 58 133 131 266 169 348 186 406 9 31 18 57 19 57 2 0 3
-13 2 -30z m-1224 -1253 c40 -19 103 -52 139 -74 36 -22 113 -63 172 -91 58
-28 126 -64 150 -81 25 -17 77 -47 116 -66 39 -20 71 -38 71 -41 0 -2 -13 2
-30 11 -41 21 -63 19 -91 -11 -21 -22 -21 -24 -4 -18 17 7 18 6 7 -8 -7 -9
-37 -63 -65 -120 -47 -92 -127 -212 -127 -191 0 4 -6 -3 -13 -17 -7 -14 -18
-25 -26 -25 -7 0 -19 -9 -27 -19 -8 -11 -14 -16 -14 -10 -1 5 -12 -4 -27 -21
l-25 -30 20 35 c79 138 152 314 136 330 -5 5 -52 31 -104 58 -52 27 -126 68
-163 91 -38 23 -78 46 -90 50 -12 5 -58 25 -102 45 -44 20 -92 42 -107 49
l-28 12 33 18 c17 11 29 15 25 11 -4 -4 -3 -13 3 -21 9 -10 7 -13 -7 -14 -18
0 -18 -1 1 -9 11 -4 31 -6 45 -4 17 3 20 2 8 -3 -13 -6 -9 -11 22 -24 35 -16
41 -16 77 1 35 15 40 22 41 54 1 29 -2 36 -18 36 -10 0 -22 -4 -25 -10 -3 -5
-10 -10 -16 -10 -5 0 -9 5 -9 10 0 6 6 10 13 10 7 0 27 13 45 29 l32 30 -35
21 c-19 12 -40 18 -47 14 -7 -4 -9 -3 -5 1 4 5 -3 15 -15 22 -44 24 -9 13 64
-20z m703 -407 c3 -6 -1 -7 -9 -4 -9 3 -16 1 -16 -5 0 -6 5 -11 12 -11 6 0 3
-7 -8 -15 -18 -15 -18 -15 0 -8 11 3 17 2 14 -3 -4 -5 -3 -28 1 -51 5 -28 4
-52 -5 -73 -8 -18 -12 -36 -9 -40 3 -5 1 -11 -5 -15 -17 -11 -11 -36 8 -33 12
2 18 -4 20 -22 7 -64 14 -90 25 -90 7 0 32 39 56 86 24 47 54 102 67 122 17
24 21 38 13 42 -7 5 -6 9 5 13 8 3 17 1 19 -6 2 -7 8 -8 13 -4 9 8 -4 22 -57
60 -13 9 0 6 28 -9 30 -15 50 -31 46 -37 -3 -6 -1 -7 5 -3 14 9 75 -22 67 -34
-3 -5 0 -12 6 -16 8 -4 9 -3 5 4 -10 17 7 15 30 -3 19 -15 19 -16 -1 -13 -13
2 -20 -3 -20 -14 0 -9 -3 -20 -7 -24 -4 -3 -3 -15 2 -24 15 -28 15 -107 0
-125 -24 -29 -63 -42 -145 -50 -44 -4 -96 -9 -115 -11 -148 -14 -188 -3 -143
41 16 16 15 17 -3 13 -11 -2 -20 -13 -22 -26 -2 -12 -11 -22 -20 -23 -11 -1
-8 -4 8 -10 17 -6 0 -7 -49 -4 -73 5 -99 13 -73 22 6 3 10 9 6 14 -3 5 0 9 5
9 6 0 17 15 25 33 23 49 84 156 126 220 21 32 42 66 45 77 4 11 11 20 16 20 6
0 7 5 4 10 -7 12 2 30 15 30 5 0 12 -4 15 -10z"/>
<path d="M1640 4251 c-89 -41 -140 -67 -177 -91 -16 -11 -19 -17 -11 -27 8
-10 4 -20 -16 -39 -14 -15 -26 -32 -26 -38 0 -6 -4 -5 -9 3 -5 7 -11 9 -14 5
-3 -5 1 -15 9 -22 12 -11 18 -7 35 23 12 19 26 35 31 35 6 0 4 -8 -3 -17 -13
-16 -12 -17 3 -4 10 7 16 17 13 21 -2 4 7 12 21 19 30 13 45 14 24 1 -8 -5
-10 -10 -4 -10 6 0 18 8 25 17 8 10 9 14 2 10 -7 -5 -11 -1 -10 10 1 14 11 18
50 20 27 1 54 7 61 12 6 6 25 6 46 1 40 -9 39 -10 -15 -16 -50 -6 -54 -10 -16
-16 18 -3 28 0 24 6 -4 5 1 7 11 3 10 -4 24 1 34 11 10 10 24 16 32 14 8 -3
10 0 6 7 -4 7 -16 9 -27 6 -23 -8 -25 7 -4 25 11 9 15 9 15 1 0 -9 5 -9 21 0
19 10 20 8 14 -10 -3 -12 -3 -21 2 -21 20 0 52 13 49 19 -2 3 12 7 32 9 20 1
41 7 46 12 13 13 -32 28 -74 24 -33 -3 -33 -3 -5 4 42 10 18 23 -53 28 -50 4
-67 0 -142 -35z"/>
<path d="M1405 1769 c-10 -15 22 -167 56 -267 16 -47 29 -95 29 -106 0 -18 2
-19 11 -6 7 11 9 7 5 -18 -4 -33 -4 -34 16 -15 11 10 26 30 34 45 13 25 12 33
-10 83 -14 30 -33 83 -42 116 -9 33 -20 56 -23 50 -4 -6 -13 16 -20 47 -17 73
-38 101 -56 71z"/>
</g>
</svg>
