<?xml version="1.0" standalone="no"?>
<!DOCTYPE svg PUBLIC "-//W3C//DTD SVG 20010904//EN"
 "http://www.w3.org/TR/2001/REC-SVG-20010904/DTD/svg10.dtd">
<svg version="1.0" xmlns="http://www.w3.org/2000/svg"
 width="500.000000pt" height="150.000000pt" viewBox="0 0 500.000000 150.000000"
 preserveAspectRatio="xMidYMid meet">
<metadata>
Created by potrace 1.15, written by Peter Selinger 2001-2017
</metadata>
<g transform="translate(0.000000,150.000000) scale(0.100000,-0.100000)"
fill="#000000" stroke="none">
<path d="M1030 1281 c-46 -9 -90 -39 -89 -60 1 -14 2 -14 6 1 6 24 29 29 30 7
1 -11 -2 -17 -8 -14 -5 4 -9 -3 -9 -13 0 -11 -7 -25 -15 -32 -15 -12 -11 -35
5 -25 4 3 14 -3 21 -12 12 -14 12 -16 -1 -8 -13 8 -13 7 0 -10 11 -14 12 -19
3 -22 -7 -3 -13 -14 -13 -26 0 -19 3 -18 19 9 18 29 63 54 98 54 55 0 113 -62
113 -120 0 -28 -127 -321 -149 -343 -5 -5 -23 -1 -40 7 -23 13 -31 13 -31 4 0
-7 -9 -2 -19 11 -13 16 -18 19 -18 7 0 -8 7 -18 14 -20 10 -4 13 -21 12 -60
-2 -35 3 -61 12 -72 12 -16 12 -17 -1 -10 -8 5 -6 0 5 -11 11 -10 125 -70 253
-132 227 -111 235 -114 300 -114 107 1 184 47 240 142 24 40 27 56 27 131 0
95 -18 141 -76 199 -55 56 -105 76 -189 76 -58 0 -84 -5 -116 -22 -58 -31
-103 -79 -130 -138 l-24 -50 73 -36 72 -37 15 41 c17 46 68 87 107 87 32 0 78
-25 97 -52 34 -48 13 -140 -39 -168 -45 -24 -85 -14 -247 64 l-158 75 46 98
c127 270 137 304 110 396 -22 77 -70 136 -136 169 -61 29 -117 39 -170 29z"/>
<path d="M1991 964 c-91 -46 -137 -131 -129 -238 6 -70 22 -107 69 -154 44
-45 81 -63 145 -69 119 -12 225 55 258 165 7 21 5 22 -50 22 -54 0 -59 -2 -94
-40 -32 -34 -43 -40 -79 -40 -56 0 -95 22 -115 64 -30 63 -18 137 30 181 51
47 160 26 179 -35 5 -17 15 -20 71 -20 38 0 64 4 64 10 0 25 -41 89 -79 123
-70 63 -179 76 -270 31z"/>
<path d="M2390 745 l0 -245 135 0 135 0 0 55 0 55 -70 0 -70 0 0 190 0 190
-65 0 -65 0 0 -245z"/>
<path d="M2836 975 c-47 -17 -100 -66 -129 -120 -30 -56 -30 -164 0 -221 93
-177 350 -179 438 -4 49 97 26 233 -49 297 -72 60 -173 79 -260 48z m157 -107
c32 -16 57 -70 57 -121 0 -88 -46 -137 -129 -137 -102 0 -157 139 -89 225 39
50 103 63 161 33z"/>
<path d="M3220 812 c0 -167 1 -182 23 -222 16 -30 37 -51 67 -67 40 -21 56
-23 197 -23 l153 0 0 245 0 245 -55 0 -55 0 0 -190 0 -190 -82 0 c-46 0 -89 4
-96 8 -23 15 -32 76 -32 224 l0 148 -60 0 -60 0 0 -178z"/>
<path d="M3710 745 l0 -245 113 0 c61 0 128 5 148 10 91 25 147 97 156 200 11
118 -33 211 -120 255 -46 23 -62 25 -174 25 l-123 0 0 -245z m239 120 c34 -17
56 -65 56 -120 0 -89 -44 -135 -130 -135 l-45 0 0 135 0 135 45 0 c26 0 59 -7
74 -15z"/>
<path d="M4373 973 c4 -3 2 -12 -4 -20 -9 -9 -8 -13 0 -13 8 0 9 -5 2 -18 -7
-13 -6 -23 1 -30 9 -9 9 -15 0 -24 -21 -21 -13 -28 29 -28 51 0 75 -13 95 -52
22 -43 12 -84 -53 -202 -53 -97 -61 -115 -62 -144 -1 -8 -6 -10 -13 -6 -10 6
-9 3 0 -8 11 -13 11 -21 2 -39 -7 -12 -8 -19 -2 -15 7 4 9 -11 5 -45 l-5 -50
33 3 c33 3 37 9 131 182 110 204 125 249 108 330 -23 110 -114 186 -224 186
-27 0 -46 -3 -43 -7z"/>
</g>
</svg>
