<?xml version="1.0" standalone="no"?>
<!DOCTYPE svg PUBLIC "-//W3C//DTD SVG 20010904//EN"
 "http://www.w3.org/TR/2001/REC-SVG-20010904/DTD/svg10.dtd">
<svg version="1.0" xmlns="http://www.w3.org/2000/svg"
 width="500.000000pt" height="150.000000pt" viewBox="0 0 500.000000 150.000000"
 preserveAspectRatio="xMidYMid meet">
<metadata>
Created by potrace 1.15, written by Peter Selinger 2001-2017
</metadata>
<g transform="translate(0.000000,150.000000) scale(0.100000,-0.100000)"
fill="#000000" stroke="none">
<path d="M0 750 l0 -750 1202 0 c1082 0 1200 2 1181 15 -12 9 -27 32 -33 53
-13 50 -13 350 2 544 l11 157 34 16 c18 9 42 13 53 10 41 -13 50 -54 50 -217
0 -186 -18 -504 -31 -536 -5 -12 -19 -27 -31 -32 -14 -5 485 -9 1270 -9 l1292
-1 0 750 0 750 -2500 0 -2500 0 0 -750z m2346 690 c55 -34 69 -78 68 -210 0
-104 -3 -125 -34 -215 -38 -112 -171 -380 -244 -495 -144 -221 -301 -396 -406
-448 -67 -34 -106 -40 -132 -19 -13 10 -14 24 -7 92 11 97 43 230 64 261 15
24 58 39 135 49 69 8 107 37 137 101 14 30 23 57 21 59 -2 3 -78 -18 -168 -45
-188 -57 -239 -62 -275 -25 -30 29 -31 50 -5 92 39 64 156 104 360 123 146 14
182 23 226 62 87 76 146 297 99 366 -26 37 -110 54 -259 53 -175 0 -297 -23
-332 -62 -19 -21 -19 -21 9 -43 26 -21 27 -23 10 -38 -31 -29 -75 -40 -127
-33 -76 10 -89 20 -81 63 22 121 138 229 315 297 84 32 235 45 444 39 127 -4
155 -8 182 -24z m605 20 c180 -14 342 -68 448 -149 41 -31 91 -106 91 -136 0
-32 -43 -66 -94 -76 -82 -15 -231 25 -167 46 28 9 27 19 -4 33 -74 34 -332 68
-419 56 -72 -9 -106 -46 -106 -112 0 -96 111 -362 215 -517 70 -104 161 -205
185 -205 10 0 32 11 48 25 25 21 35 23 55 16 82 -31 123 -210 77 -334 -26 -69
-49 -91 -81 -78 -99 38 -342 287 -465 476 -144 222 -254 522 -270 740 -11 139
23 203 114 216 75 10 227 10 373 -1z"/>
</g>
</svg>
