<?xml version="1.0" standalone="no"?>
<!DOCTYPE svg PUBLIC "-//W3C//DTD SVG 20010904//EN"
 "http://www.w3.org/TR/2001/REC-SVG-20010904/DTD/svg10.dtd">
<svg version="1.0" xmlns="http://www.w3.org/2000/svg"
 width="275.000000pt" height="275.000000pt" viewBox="0 0 275.000000 275.000000"
 preserveAspectRatio="xMidYMid meet">
<metadata>
Created by potrace 1.15, written by Peter Selinger 2001-2017
</metadata>
<g transform="translate(0.000000,275.000000) scale(0.100000,-0.100000)"
fill="#000000" stroke="none">
<path d="M2000 1935 c-300 -23 -637 -49 -750 -58 -113 -9 -407 -32 -655 -52
-484 -39 -477 -38 -490 -96 -4 -15 -15 -31 -26 -34 -27 -9 -26 -75 1 -100 25
-23 25 -31 0 -38 -26 -7 -28 -72 -3 -99 9 -11 11 -18 5 -18 -18 0 -15 -75 3
-90 9 -7 12 -16 7 -19 -17 -11 -22 -80 -6 -95 7 -8 10 -16 5 -18 -4 -2 -11
-22 -15 -46 -5 -33 -3 -44 9 -48 11 -4 12 -10 6 -18 -18 -22 -17 -87 2 -98 10
-5 26 -19 38 -31 20 -22 27 -22 1237 -66 669 -25 1230 -41 1245 -37 16 4 36
20 47 39 19 31 20 52 20 505 0 519 0 516 -60 547 -16 8 -39 14 -52 14 -13 -1
-268 -20 -568 -44z"/>
<path d="M1105 842 c-2 -2 -104 -5 -227 -6 -123 -1 -229 -6 -236 -10 -7 -4
-12 -2 -12 4 0 8 -7 9 -17 5 -10 -4 -58 -9 -108 -11 -49 -2 -110 -8 -135 -14
-114 -28 -122 -31 -116 -46 3 -8 2 -12 -3 -9 -12 7 -19 -4 -25 -37 -3 -20 1
-28 20 -37 13 -6 24 -15 24 -20 0 -6 8 -15 18 -20 22 -11 231 -33 537 -56 116
-8 260 -20 320 -25 138 -13 425 -35 705 -55 118 -9 270 -20 338 -25 268 -21
374 -8 438 54 43 42 63 120 41 163 -22 41 -52 73 -70 73 -9 0 -20 7 -24 15 -5
8 -24 16 -43 19 -113 14 -160 17 -300 21 -85 2 -160 4 -165 5 -6 1 -14 2 -20
0 -13 -2 -130 0 -295 5 -207 7 -640 12 -645 7z"/>
</g>
</svg>
