<?xml version="1.0" standalone="no"?>
<!DOCTYPE svg PUBLIC "-//W3C//DTD SVG 20010904//EN"
 "http://www.w3.org/TR/2001/REC-SVG-20010904/DTD/svg10.dtd">
<svg version="1.0" xmlns="http://www.w3.org/2000/svg"
 width="500.000000pt" height="150.000000pt" viewBox="0 0 500.000000 150.000000"
 preserveAspectRatio="xMidYMid meet">
<metadata>
Created by potrace 1.15, written by Peter Selinger 2001-2017
</metadata>
<g transform="translate(0.000000,150.000000) scale(0.100000,-0.100000)"
fill="#000000" stroke="none">
<path d="M0 750 l0 -750 2500 0 2500 0 0 750 0 750 -1016 0 c-902 0 -1015 -2
-1004 -15 16 -20 -3 -45 -29 -38 -12 3 -25 -4 -35 -18 -9 -13 -16 -18 -16 -11
0 7 -4 11 -9 7 -5 -3 -12 -1 -16 5 -3 5 -1 10 5 10 6 0 8 6 4 13 -6 10 -4 10
7 0 7 -7 18 -13 23 -13 6 0 5 4 -3 9 -9 6 -10 11 -2 15 6 4 11 2 11 -5 0 -19
14 -1 15 20 1 17 -6 19 -57 20 -52 0 -57 -2 -43 -15 8 -8 19 -13 24 -10 5 3 7
-2 4 -13 -4 -17 -8 -17 -71 10 -48 20 -84 29 -126 29 l-58 0 7 -27 c3 -15 7
-32 8 -38 5 -28 47 -33 47 -6 0 14 6 19 20 18 24 -2 32 -24 25 -68 -5 -32 -4
-33 8 -11 l13 22 47 -30 c26 -16 47 -32 47 -34 0 -15 -25 -56 -34 -56 -6 0 -4
-5 4 -10 12 -7 12 -12 2 -22 -18 -18 -15 -41 9 -62 21 -17 22 -17 48 6 40 36
118 88 132 88 7 0 2 -11 -11 -25 -13 -14 -30 -25 -37 -25 -8 0 -12 -4 -8 -9 6
-11 -11 -29 -61 -67 -19 -15 -34 -31 -34 -36 0 -5 4 -7 9 -4 5 4 11 1 13 -5 2
-7 12 -7 31 0 24 9 27 8 27 -9 0 -13 9 -22 28 -26 15 -3 32 -7 39 -9 7 -2 21
8 32 23 l20 27 1 -24 c0 -20 4 -22 28 -17 27 6 27 6 6 -12 -15 -13 -18 -20
-10 -28 12 -11 28 -11 65 1 16 5 20 3 15 -9 -4 -9 -1 -23 6 -31 11 -13 10 -18
-6 -30 -10 -8 -23 -15 -29 -15 -5 0 -2 -7 8 -14 22 -17 10 -55 -28 -88 -33
-28 -32 -38 4 -38 21 0 30 -6 34 -21 4 -17 3 -19 -6 -10 -14 14 -30 15 -22 1
3 -6 1 -10 -5 -10 -6 0 -9 -4 -6 -9 4 -5 -2 -8 -11 -7 -10 2 -22 -7 -28 -18
-6 -11 -19 -22 -29 -24 -16 -3 -16 -2 3 17 21 21 30 58 11 46 -5 -3 -10 -12
-10 -18 0 -7 -11 -24 -25 -39 -36 -39 -32 -49 14 -42 29 5 39 2 44 -9 13 -35
-4 -54 -71 -76 -98 -34 -115 -44 -118 -75 -1 -14 0 -25 4 -22 4 2 12 -2 18 -8
9 -9 7 -21 -6 -45 l-17 -33 -12 30 -13 31 -30 -34 c-34 -39 -30 -55 13 -55 18
0 28 -4 24 -10 -4 -6 -11 -8 -16 -5 -5 4 -26 -7 -46 -23 -126 -99 -316 -134
-468 -87 -33 10 -78 21 -100 24 -22 3 -40 11 -40 17 0 10 -69 76 -79 75 -4 -1
-16 -1 -28 0 -23 0 -23 0 1 10 14 5 30 8 38 5 16 -6 27 10 12 19 -5 4 -8 13
-5 20 7 18 -56 39 -114 37 -37 0 -42 1 -29 11 22 16 51 75 44 87 -3 6 -14 10
-25 10 -33 0 -225 71 -247 93 -24 22 -29 37 -13 37 6 0 10 -7 10 -15 0 -8 5
-15 10 -15 7 0 7 6 0 20 -12 23 -14 24 -42 9 -16 -9 -19 -8 -13 3 19 33 28 39
36 27 6 -10 219 -62 226 -55 4 3 -12 21 -37 41 -19 15 -22 16 -11 3 18 -24 6
-23 -76 6 -37 13 -80 27 -95 30 -17 4 -28 13 -28 24 0 12 -2 14 -8 4 -6 -9
-11 -6 -18 10 -12 28 -11 54 2 51 5 -1 40 -9 77 -17 86 -20 85 -20 59 4 -12
12 -22 25 -22 30 0 5 -5 21 -11 37 -7 15 -12 37 -13 47 -1 22 -15 29 -34 18
-9 -6 -10 -16 -1 -40 6 -18 15 -32 20 -32 5 0 9 -7 9 -16 0 -9 5 -12 13 -8 9
5 9 4 0 -6 -9 -10 -19 -10 -50 0 -50 16 -59 26 -43 45 8 10 9 15 1 15 -6 0
-11 7 -11 15 0 8 7 15 15 15 9 0 25 8 36 19 16 15 17 20 6 24 -8 3 -17 17 -19
32 -5 26 -5 26 41 20 45 -6 45 -6 21 9 -27 16 -39 22 -83 38 -15 6 -37 23 -47
39 -21 29 -48 32 -77 7 -13 -10 -15 -9 -12 7 3 16 13 20 43 20 22 1 41 6 44
13 2 7 10 12 18 12 7 0 11 -6 8 -14 -10 -26 18 -30 38 -6 15 19 16 25 6 39
-12 14 -11 14 4 3 28 -22 49 7 50 69 0 34 3 47 9 38 7 -11 9 -11 9 -1 0 7 5
10 11 6 8 -5 10 1 6 18 -8 30 12 52 37 42 9 -3 16 -1 16 6 0 6 5 8 12 4 8 -5
9 -2 5 9 -4 10 -2 16 6 14 7 -1 13 11 15 27 3 23 6 26 14 15 7 -11 8 -9 3 6
-4 11 -8 26 -8 33 0 9 -199 12 -959 12 l-958 0 0 -750z m1522 648 c72 -140 87
-180 75 -199 -6 -10 -20 -19 -29 -19 -10 0 -18 -7 -18 -16 0 -17 -12 -15 -100
19 -70 27 -95 43 -81 52 6 3 11 0 11 -7 0 -8 5 -6 11 5 8 14 14 16 25 6 9 -7
18 -8 27 -2 20 16 49 24 41 12 -4 -7 0 -9 14 -5 15 5 28 -1 46 -21 l26 -28 -6
35 c-8 45 -53 167 -73 200 -13 21 -13 23 -1 13 8 -6 23 -26 32 -45z"/>
<path d="M1922 1307 c-23 -24 -39 -47 -35 -52 5 -4 3 -5 -4 -1 -12 6 -20 -3
-69 -78 -29 -45 -47 -87 -36 -84 4 1 15 -2 24 -6 10 -5 24 -6 30 -3 7 2 16 4
19 3 3 0 14 6 24 14 14 11 17 11 11 2 -7 -12 -4 -12 15 -1 32 18 48 19 56 7 4
-7 1 -8 -7 -3 -9 5 -11 4 -6 -3 13 -21 45 6 57 47 7 25 19 41 31 45 14 3 17 9
12 18 -5 7 -7 21 -6 31 2 9 -2 17 -7 17 -6 0 -10 3 -10 8 3 18 -2 33 -10 28
-4 -3 -7 6 -5 19 1 14 -1 25 -6 25 -5 0 -14 2 -22 5 -7 3 -32 -14 -56 -38z"/>
<path d="M2370 1125 c-30 -9 -73 -27 -96 -40 -50 -29 -132 -118 -140 -152 -8
-29 -21 -27 -161 22 -92 31 -93 32 -93 10 0 -11 11 -36 25 -55 14 -19 25 -39
25 -46 0 -7 14 -23 31 -36 46 -35 118 -111 125 -131 3 -11 25 -27 47 -38 23
-10 36 -19 29 -19 -7 0 -22 5 -34 11 -33 18 -33 3 1 -65 66 -135 186 -209 341
-210 75 0 93 3 152 31 101 48 182 140 213 243 6 20 5 23 -6 13 -27 -26 -26
-12 1 18 56 62 65 73 75 91 6 10 26 26 45 36 18 10 41 32 50 48 9 16 26 45 38
64 24 39 29 75 10 67 -34 -14 -229 -77 -238 -77 -6 0 -9 4 -6 9 9 13 -52 98
-94 131 -96 76 -230 105 -340 75z m227 -145 l55 -31 40 26 c44 29 69 22 67
-19 -1 -20 -2 -20 -6 -1 -9 37 -21 37 -80 -4 -32 -22 -71 -44 -85 -50 -25 -9
-26 -8 -24 22 l1 32 -156 3 -156 2 -12 -41 c-7 -22 -14 -39 -17 -37 -2 3 2 22
9 44 12 34 19 40 53 46 21 3 64 16 94 27 74 29 143 23 217 -19z m-251 -156
c-15 -44 -23 -99 -9 -65 5 11 7 11 14 0 7 -11 9 -11 9 -1 0 7 4 11 9 7 6 -3 4
-26 -5 -56 -9 -29 -13 -62 -10 -75 6 -23 5 -24 -59 -24 l-66 0 20 28 c11 15
37 72 56 126 39 108 44 120 52 112 3 -3 -2 -26 -11 -52z m260 -7 c-5 -25 -1
-38 14 -54 18 -20 18 -25 6 -61 -8 -21 -12 -51 -9 -65 5 -27 5 -27 -56 -27
-61 0 -73 7 -47 29 7 6 26 46 41 89 16 42 32 87 36 100 13 33 22 27 15 -11z
m-96 9 c6 -8 18 -12 26 -9 19 7 18 -13 -5 -86 -10 -33 -33 -78 -51 -100 -17
-23 -29 -45 -25 -51 3 -6 49 -10 106 -10 97 0 99 0 99 24 0 20 8 26 61 40 33
10 63 15 65 13 3 -3 -18 -10 -46 -17 -49 -12 -78 -39 -65 -60 3 -6 0 -10 -8
-10 -8 0 -40 -13 -71 -29 -30 -17 -75 -33 -100 -36 -52 -8 -139 14 -179 45
-17 14 -40 20 -75 20 -59 0 -79 16 -57 47 12 17 12 22 2 26 -7 3 -4 6 7 6 13
1 16 -3 11 -16 -19 -46 -15 -48 93 -51 l103 -3 -6 35 c-5 25 2 61 26 135 29
87 36 101 55 101 12 0 27 -6 34 -14z"/>
</g>
</svg>
