<?xml version="1.0" standalone="no"?>
<!DOCTYPE svg PUBLIC "-//W3C//DTD SVG 20010904//EN"
 "http://www.w3.org/TR/2001/REC-SVG-20010904/DTD/svg10.dtd">
<svg version="1.0" xmlns="http://www.w3.org/2000/svg"
 width="500.000000pt" height="150.000000pt" viewBox="0 0 500.000000 150.000000"
 preserveAspectRatio="xMidYMid meet">
<metadata>
Created by potrace 1.15, written by Peter Selinger 2001-2017
</metadata>
<g transform="translate(0.000000,150.000000) scale(0.100000,-0.100000)"
fill="#000000" stroke="none">
<path d="M0 962 c1 -319 5 -543 10 -552 7 -10 10 -11 10 -2 0 19 18 14 25 -7
5 -16 10 -18 35 -8 16 6 32 20 36 31 6 19 7 19 11 -5 3 -21 9 -26 24 -22 24 7
25 19 2 27 -12 5 -14 9 -6 14 15 9 -1 35 -66 114 -37 44 -39 48 -11 23 18 -16
42 -38 52 -48 14 -13 23 -15 38 -7 26 14 33 13 27 -4 -12 -31 79 -69 112 -47
22 14 4 33 -19 19 -13 -8 -25 -9 -41 -1 -22 9 -22 10 10 11 43 1 50 10 25 30
-20 16 -21 20 -9 52 14 37 16 35 18 -20 2 -29 6 -35 25 -36 13 -1 21 4 19 10
-2 6 -11 10 -20 10 -9 -1 -14 5 -12 15 2 9 4 18 4 20 1 3 11 -5 24 -16 35 -31
47 -36 47 -18 0 9 -4 13 -10 10 -15 -10 -12 5 6 22 11 12 14 26 9 54 -6 37 -5
39 29 56 41 19 44 28 15 43 -23 13 -21 20 7 24 21 3 31 25 12 28 -7 0 -17 2
-23 3 -5 2 -14 3 -19 4 -5 0 -3 8 4 15 9 12 18 13 38 5 36 -14 115 -2 108 16
-3 10 4 12 31 9 20 -3 39 -7 43 -9 10 -6 21 21 13 29 -4 3 -22 7 -42 7 l-36 1
30 8 c17 4 41 5 56 3 20 -4 28 1 37 22 7 14 12 27 12 29 0 2 -34 7 -75 11
-112 10 -147 24 -58 22 40 0 75 2 79 6 4 4 2 7 -4 7 -7 0 -12 5 -12 10 0 6 7
10 15 10 12 0 12 3 -3 20 -9 11 -18 28 -18 38 -1 9 -5 26 -10 37 -7 17 -6 18
8 7 9 -7 18 -26 22 -43 5 -25 9 -29 26 -24 13 4 26 0 38 -11 16 -17 17 -17 20
4 4 25 32 19 33 -7 0 -11 3 -9 9 7 5 12 18 32 29 43 21 23 66 123 51 114 -6
-4 -10 -1 -10 4 0 6 5 11 12 11 6 0 9 3 5 6 -3 4 0 13 8 21 8 8 15 23 15 34 0
11 4 18 9 14 11 -6 24 12 29 40 1 11 15 36 30 55 15 19 36 49 46 65 10 17 30
40 44 53 l25 22 -526 0 -527 0 0 -538z"/>
<path d="M1070 1443 c-37 -69 -114 -245 -125 -288 -5 -16 -9 -32 -10 -35 -21
-79 -37 -161 -33 -165 11 -12 37 8 43 33 4 15 12 30 18 34 7 4 12 13 12 19 0
7 5 14 12 16 8 3 11 -4 8 -18 -3 -13 1 -27 8 -31 8 -6 9 -10 1 -15 -6 -5 -14
-17 -18 -27 -7 -19 -6 -19 14 -1 11 10 25 35 30 56 36 131 97 280 161 392 23
40 44 75 46 80 2 4 -27 7 -66 7 l-69 0 -32 -57z"/>
<path d="M1495 1484 c-6 -8 -18 -16 -27 -18 -10 -1 -21 -6 -25 -11 -4 -4 2 -5
15 -2 20 5 17 -2 -23 -58 -72 -102 -172 -318 -173 -375 0 -8 -4 -25 -7 -37 -5
-16 -2 -22 12 -26 15 -4 14 -5 -4 -6 -20 -1 -23 -6 -22 -38 0 -27 2 -33 8 -19
6 16 9 15 23 -14 19 -38 23 -33 43 54 22 93 58 191 106 281 39 75 114 185 126
185 3 0 -2 -10 -11 -22 -9 -13 -21 -31 -27 -41 -9 -16 -8 -17 10 -8 14 8 22 8
27 -1 4 -6 3 -8 -3 -5 -6 4 -16 0 -22 -7 -16 -19 5 -32 24 -16 12 10 19 10 32
-1 14 -12 16 -12 8 0 -5 9 -4 12 3 8 5 -4 8 -16 5 -26 -3 -10 0 -22 6 -25 6
-4 11 -2 11 5 0 8 4 8 15 -1 8 -7 12 -16 9 -21 -3 -5 0 -9 6 -9 7 0 10 6 7 13
-4 13 21 36 41 37 6 0 12 -4 12 -10 0 -5 -7 -10 -15 -10 -9 0 -15 -9 -15 -23
0 -13 -4 -27 -9 -32 -34 -38 -142 -288 -129 -301 3 -3 176 -13 231 -14 4 0 7
-4 7 -9 0 -5 -12 -8 -26 -5 -22 4 -25 2 -20 -12 4 -10 1 -21 -6 -26 -10 -6 -9
-11 5 -19 9 -6 15 -14 12 -18 -2 -5 6 -7 18 -6 12 1 33 3 47 5 14 1 19 4 12 7
-10 4 -10 8 -1 19 9 11 8 14 -5 14 -9 0 -19 0 -23 1 -4 0 -9 -5 -12 -12 -2 -7
1 -9 9 -4 9 5 11 4 6 -3 -10 -17 -33 -15 -40 4 -3 8 -2 12 4 9 6 -3 10 -2 10
2 0 5 9 14 21 21 12 8 18 9 14 3 -3 -6 -2 -11 4 -11 17 0 24 22 10 31 -9 5 17
9 68 9 68 0 81 -3 77 -15 -4 -9 3 -16 21 -21 23 -6 25 -8 11 -16 -9 -5 -22 -6
-29 -2 -7 5 -6 0 3 -11 14 -17 13 -18 -8 -13 -12 4 -20 2 -16 -3 3 -5 11 -9
19 -9 7 0 15 -3 18 -7 2 -5 2 -3 1 4 -5 20 13 24 27 6 10 -12 10 -14 2 -9 -9
5 -13 1 -13 -12 0 -15 -5 -19 -18 -15 -12 3 -19 -1 -19 -11 0 -17 27 -18 38
-2 9 11 31 -3 24 -15 -8 -12 12 -11 36 2 15 8 24 7 36 -2 12 -11 14 -10 12 2
-2 7 3 24 10 37 12 22 14 22 30 8 10 -9 21 -13 26 -9 4 5 6 2 3 -6 -2 -8 -15
-21 -29 -30 -23 -15 -23 -15 -10 2 11 14 11 17 0 17 -10 0 -14 -14 -14 -45 0
-28 3 -39 8 -30 15 27 26 16 12 -12 -15 -29 -10 -47 6 -23 8 11 9 10 4 -7 -3
-13 -2 -23 3 -23 5 0 12 -13 15 -29 4 -18 14 -32 27 -36 11 -3 20 -10 20 -15
0 -18 34 -20 53 -3 19 18 20 17 6 -4 -17 -27 -5 -41 21 -25 30 18 24 4 -10
-25 -17 -13 -27 -30 -23 -35 3 -6 -2 -17 -12 -24 -10 -8 -16 -17 -12 -20 3 -3
17 3 31 14 14 10 23 22 20 24 -2 3 3 11 11 18 14 11 14 10 6 -13 -7 -17 -7
-28 -1 -32 13 -8 13 -25 -1 -25 -5 0 -7 5 -3 12 5 7 3 8 -7 2 -8 -5 -18 -9
-24 -9 -5 -1 -9 -6 -8 -13 4 -15 -13 -16 -22 -1 -4 6 -12 8 -19 6 -8 -3 -11 5
-9 27 l4 31 -16 -34 c-19 -43 -20 -41 13 -41 26 -1 26 -1 8 -15 -10 -8 -32
-13 -47 -11 -16 2 -26 0 -24 -5 3 -4 0 -11 -6 -14 -5 -4 -8 -14 -5 -22 3 -8 3
-20 -1 -26 -4 -7 -9 -3 -14 9 -6 16 -8 15 -8 -8 -1 -15 4 -30 11 -34 7 -4 8
-3 4 4 -5 8 -2 10 8 6 18 -7 21 -20 6 -29 -6 -4 -17 -21 -24 -38 -13 -28 -14
-3 -15 228 -1 149 -5 266 -11 275 -6 10 -10 11 -10 3 0 -7 -5 -13 -11 -13 -5
0 -8 4 -5 9 3 5 -1 12 -10 15 -12 4 -15 2 -10 -9 5 -13 -24 -15 -227 -16 -128
-1 -239 -2 -247 -3 -8 -2 -26 -4 -40 -5 l-25 -2 25 -14 c14 -8 19 -14 13 -15
-7 0 -13 -9 -13 -20 0 -12 -7 -20 -16 -20 -11 0 -14 5 -10 17 6 16 6 16 -11 1
-29 -27 -69 -38 -83 -25 -7 7 -4 -2 8 -20 12 -17 22 -35 22 -40 0 -4 -4 -1
-10 7 -5 8 -12 11 -17 7 -10 -10 16 -27 32 -21 7 3 15 -2 18 -10 4 -9 2 -16
-3 -16 -5 0 -7 -6 -4 -14 3 -8 -2 -16 -13 -19 -16 -5 -16 -6 2 -5 11 0 111 0
223 -1 l202 -1 0 -110 0 -110 -125 0 c-69 0 -125 -4 -125 -8 0 -14 79 -132
122 -184 l40 -48 159 0 159 0 1 33 c0 17 0 52 -1 76 -1 29 2 41 9 37 6 -4 11
-13 11 -20 0 -8 7 -19 15 -26 16 -13 21 -35 6 -26 -11 7 -28 -14 -25 -31 1 -7
2 -19 3 -26 1 -8 21 -13 58 -15 53 -3 56 -2 42 15 -13 17 -13 17 7 1 19 -17
66 -18 668 -18 570 0 647 2 642 15 -3 8 -1 14 5 12 6 -1 18 8 26 21 10 14 11
22 4 22 -6 0 -11 -5 -11 -12 0 -6 -2 -9 -5 -7 -2 3 11 36 29 75 40 82 78 198
101 309 19 89 23 333 6 375 -5 14 -10 19 -10 11 -1 -7 -7 -11 -16 -8 -8 4 -17
2 -19 -2 -3 -4 -8 -66 -10 -137 -6 -165 -37 -317 -86 -427 -19 -43 -23 -47
-34 -31 -12 16 -14 15 -29 -7 -10 -13 -17 -19 -17 -15 0 5 6 17 14 25 7 9 16
30 20 46 6 24 5 28 -5 18 -18 -18 -68 -16 -75 2 -9 22 -23 19 -50 -11 -13 -14
-24 -21 -25 -17 -4 28 5 83 18 113 47 113 61 358 28 500 -19 81 -53 178 -87
243 -25 52 -100 167 -108 167 -6 0 -5 10 -8 -635 -2 -383 -4 -456 -15 -435 -7
14 -10 26 -6 28 4 2 -2 21 -13 43 -11 23 -17 43 -14 47 3 3 6 0 6 -6 0 -7 7
-12 14 -12 11 0 15 11 14 42 -1 24 -6 46 -12 50 -14 9 -37 -2 -29 -16 3 -6 1
-6 -8 2 -19 18 -31 15 -24 -7 3 -11 -1 -24 -12 -32 -15 -12 -16 -12 -10 3 8
21 -1 48 -15 48 -6 0 -8 -6 -5 -14 7 -16 -31 -45 -50 -39 -7 3 -13 14 -14 26
-1 20 -2 20 -9 -3 -6 -18 -8 -7 -9 43 -1 37 3 67 8 67 12 0 21 39 11 45 -5 3
-11 -3 -13 -12 -3 -10 -5 2 -5 27 0 25 2 39 5 32 2 -6 8 -10 13 -7 4 3 7 -3 6
-12 0 -9 6 -18 14 -21 12 -3 12 -2 3 8 -6 7 -9 19 -6 27 4 9 -2 16 -16 20 -22
6 -30 33 -8 33 8 0 8 3 2 8 -12 8 -18 53 -7 50 4 -1 23 8 42 20 29 18 31 22
14 22 -12 0 -24 -7 -28 -15 -3 -8 -12 -15 -21 -15 -17 0 -19 76 -15 528 1 187
-1 256 -10 267 -9 11 -33 15 -82 15 l-70 0 2 -72 c1 -40 2 -150 1 -243 l-1
-170 -30 -13 c-16 -8 -30 -18 -30 -23 0 -6 10 -3 22 5 12 9 25 16 29 16 12 0
16 -47 6 -65 -8 -15 -12 -14 -38 11 -16 15 -29 33 -29 40 0 6 -9 14 -20 17
-13 3 -18 1 -14 -6 3 -7 -1 -4 -9 6 -15 18 -47 14 -47 -5 0 -7 -5 -6 -13 1
-14 11 -27 5 -27 -11 0 -5 5 -6 10 -3 6 3 10 2 10 -4 0 -6 6 -8 13 -5 8 3 18
-6 25 -21 13 -29 5 -33 -14 -7 -12 16 -13 15 -9 -5 2 -13 -1 -23 -6 -23 -5 0
-9 8 -7 18 2 11 -3 17 -15 16 -14 -2 -17 5 -15 33 2 30 5 33 24 29 21 -6 53
18 41 31 -4 3 -2 14 3 24 8 14 6 21 -10 29 -11 6 -20 16 -19 23 0 9 2 9 5 0 9
-20 35 -3 29 18 -7 22 10 26 19 4 3 -8 10 -15 16 -15 6 0 8 6 4 13 -4 6 3 2
15 -11 21 -21 48 -22 35 0 -4 6 2 6 15 -1 23 -13 30 3 7 16 -13 7 -56 76 -56
90 0 3 7 0 15 -7 26 -22 48 -4 41 33 -4 23 -3 28 4 17 6 -9 10 -10 10 -3 0 25
-19 21 -56 -12 -21 -19 -43 -35 -48 -35 -5 0 -3 -7 4 -15 7 -8 17 -12 23 -8 6
4 7 1 2 -7 -4 -7 -2 -16 6 -21 7 -4 10 -11 6 -15 -4 -4 -13 1 -21 11 -7 10
-17 15 -22 12 -6 -3 -10 4 -9 16 0 20 78 107 95 107 4 0 7 14 6 30 0 17 -4 30
-8 30 -5 0 -8 5 -8 11 0 7 -8 18 -17 26 -17 14 -17 14 0 9 9 -3 17 -1 17 4 0
6 -4 10 -10 10 -5 0 -10 7 -10 16 0 9 -5 12 -12 8 -7 -4 -10 -4 -6 1 4 4 3 16
-3 26 -11 22 -77 27 -97 7 -9 -9 -12 -9 -12 0 0 9 -132 12 -563 12 -498 0
-563 -2 -572 -16z"/>
<path d="M3310 1496 c0 -3 18 -26 41 -52 54 -63 119 -151 119 -162 0 -5 12
-22 27 -38 15 -16 26 -30 24 -32 -1 -1 -1 -8 2 -15 2 -6 7 8 11 33 5 33 9 41
16 30 22 -34 8 7 -16 47 -24 42 -26 43 -42 25 -9 -10 -16 -16 -14 -13 1 2 -6
14 -15 25 -18 21 -18 21 4 2 22 -18 22 -18 18 10 -2 16 -4 33 -4 37 -1 5 -5 6
-10 2 -5 -3 -12 -1 -16 5 -3 5 -1 10 5 10 6 0 -5 20 -26 45 -33 41 -40 45 -80
45 -24 0 -44 -2 -44 -4z"/>
<path d="M4680 1172 c0 -4 9 -14 20 -22 23 -17 26 -40 5 -40 -8 0 -12 6 -9 14
7 17 -44 39 -82 34 -21 -2 -33 -13 -51 -47 -13 -24 -21 -47 -18 -49 3 -3 17 1
32 9 16 7 31 15 35 17 4 2 6 -26 4 -62 -2 -63 -4 -67 -46 -106 -24 -22 -52
-40 -62 -40 -10 0 -18 -7 -18 -16 0 -8 -4 -12 -10 -9 -5 3 -19 1 -31 -6 -16
-8 -18 -13 -9 -19 22 -14 0 -30 -39 -30 -21 0 -44 -6 -50 -14 -10 -12 -9 -14
6 -10 11 3 23 -3 30 -14 8 -14 8 -19 0 -19 -69 -5 -117 -25 -117 -48 0 -8 -5
-15 -11 -15 -6 0 -4 -7 5 -15 15 -15 69 -18 60 -3 -3 5 -11 5 -17 2 -9 -5 -9
-4 0 6 9 10 9 18 1 34 -11 20 -10 20 9 4 17 -16 22 -16 39 -4 16 12 23 12 46
-2 16 -9 28 -20 28 -24 0 -13 38 -9 42 4 2 6 12 12 21 14 16 2 15 -1 -4 -32
-14 -23 -19 -43 -15 -59 5 -18 2 -25 -9 -25 -8 0 -15 5 -15 11 0 7 -11 8 -30
4 -22 -5 -30 -3 -30 7 0 19 -49 39 -69 29 -28 -16 -134 -40 -123 -29 7 7 7 14
-1 23 -10 11 -20 6 -52 -23 -22 -20 -30 -26 -19 -12 12 14 25 32 29 40 7 12 6
13 -7 3 -8 -7 -18 -10 -21 -6 -4 3 -7 1 -7 -6 0 -7 -4 -9 -10 -6 -5 3 -10 -1
-10 -9 0 -9 -4 -16 -10 -16 -5 0 -10 -8 -11 -17 -1 -10 -5 -1 -11 19 -9 33
-13 37 -38 35 -26 -2 -29 -5 -30 -42 -2 -73 0 -88 11 -102 9 -11 8 -12 -4 -7
-11 4 -16 0 -15 -13 0 -10 -3 -27 -7 -37 -6 -15 -5 -17 5 -11 8 5 11 3 8 -6
-3 -8 -10 -13 -16 -12 -5 1 -13 -4 -16 -13 -4 -10 -2 -13 7 -8 9 5 9 4 0 -6
-7 -7 -9 -25 -6 -41 3 -18 1 -29 -6 -30 -6 -1 -16 -2 -22 -3 -6 0 -17 -10 -25
-20 -12 -18 -19 -15 -15 7 3 18 -18 5 -24 -15 -3 -13 -10 -32 -15 -43 -5 -11
-29 -66 -54 -123 l-44 -102 281 0 282 0 2 49 c2 56 37 133 80 173 69 66 188
87 275 49 49 -21 112 -82 127 -124 l11 -28 -35 27 c-41 31 -85 40 -85 17 0 -9
-6 -13 -14 -10 -10 4 -13 1 -10 -8 3 -8 -9 -23 -30 -38 -20 -13 -34 -26 -32
-28 2 -2 -8 -13 -22 -24 -17 -11 -22 -13 -15 -4 7 9 10 19 6 22 -3 4 -1 7 5 7
7 0 12 6 12 13 -1 6 -9 2 -19 -11 -12 -14 -21 -18 -23 -10 -3 7 -7 5 -11 -6
-4 -9 -3 -15 3 -11 5 3 8 -4 7 -15 -1 -11 -7 -20 -14 -20 -7 0 -13 -4 -13 -10
0 -6 85 -10 235 -10 l235 0 0 424 c0 364 -2 425 -15 436 -19 16 -19 40 0 40 9
0 12 6 8 17 -4 11 -8 12 -11 5 -6 -18 -20 -14 -27 6 -5 19 -27 24 -108 25 -36
1 -39 3 -50 44 -7 28 -16 42 -24 39 -7 -3 -13 -1 -13 3 0 5 6 11 14 14 35 14
-36 127 -80 127 -8 0 -14 -4 -14 -8z m-541 -818 c20 -4 31 -12 31 -23 0 -9 5
-22 11 -28 6 -6 12 -27 14 -47 3 -27 -2 -40 -19 -53 -21 -17 -25 -53 -5 -53 5
0 9 -5 9 -10 0 -6 -12 -3 -26 7 -21 13 -32 15 -55 6 -16 -6 -29 -8 -29 -3 0 5
-14 12 -31 15 -23 5 -28 9 -18 16 11 7 11 9 -3 9 -11 0 -19 11 -23 34 -8 38
11 75 54 113 28 24 41 26 90 17z"/>
</g>
</svg>
