<?xml version="1.0" standalone="no"?>
<!DOCTYPE svg PUBLIC "-//W3C//DTD SVG 20010904//EN"
 "http://www.w3.org/TR/2001/REC-SVG-20010904/DTD/svg10.dtd">
<svg version="1.0" xmlns="http://www.w3.org/2000/svg"
 width="600.000000pt" height="600.000000pt" viewBox="0 0 600.000000 600.000000"
 preserveAspectRatio="xMidYMid meet">
<metadata>
Created by potrace 1.15, written by Peter Selinger 2001-2017
</metadata>
<g transform="translate(0.000000,600.000000) scale(0.100000,-0.100000)"
fill="#000000" stroke="none">
<path d="M3545 5224 c-39 -32 -221 -113 -285 -128 -99 -24 -234 -30 -335 -17
-146 20 -211 45 -302 118 l-42 34 -63 -22 c-169 -56 -613 -240 -773 -319 -204
-101 -238 -125 -431 -301 -77 -70 -193 -171 -260 -225 -67 -55 -167 -137 -224
-184 -56 -47 -131 -108 -166 -137 -36 -28 -88 -72 -116 -97 -49 -43 -51 -46
-36 -68 30 -45 144 -167 391 -416 170 -171 256 -251 266 -247 9 3 47 10 87 15
39 5 101 14 139 20 52 8 70 8 76 -1 30 -49 32 -144 33 -1434 l1 -1300 295 -8
c162 -4 682 -4 1155 -1 1049 8 919 8 1349 1 197 -4 362 -5 366 -2 3 2 3 39 -2
82 -7 71 -20 996 -23 1628 -1 287 11 843 21 958 l7 78 41 -6 c23 -4 84 -20
138 -36 53 -16 107 -29 121 -29 18 0 46 22 99 78 105 109 158 168 210 237 25
33 56 69 68 80 12 11 90 93 172 182 l149 163 -53 51 c-29 29 -80 75 -114 103
-33 28 -105 90 -160 137 -205 177 -449 370 -549 435 -33 21 -91 64 -130 95
-38 31 -94 69 -123 83 -29 15 -83 45 -118 67 -36 22 -132 64 -212 94 -162 59
-220 81 -462 180 -91 37 -169 69 -175 71 -5 2 -19 -4 -30 -12z m-645 -1054 c0
-13 -7 -20 -20 -20 -18 0 -20 -8 -22 -122 -3 -119 -4 -123 -25 -126 -23 -3
-23 -2 -23 122 l0 126 -25 0 c-18 0 -25 5 -25 20 0 18 7 20 70 20 63 0 70 -2
70 -20z m150 0 c0 -16 -7 -20 -35 -20 -34 0 -35 -1 -35 -40 0 -38 2 -40 30
-40 23 0 30 -4 30 -20 0 -16 -7 -20 -31 -20 -30 0 -30 0 -28 -53 3 -61 -4 -77
-32 -77 -18 0 -19 8 -19 145 l0 145 60 0 c53 0 60 -2 60 -20z m140 13 c0 -5 9
-62 20 -128 25 -151 25 -155 0 -155 -13 0 -22 9 -26 25 -5 19 -13 25 -35 25
-24 0 -29 -4 -29 -25 0 -17 -5 -25 -18 -25 -16 0 -17 7 -11 73 4 39 12 101 18
137 6 36 11 68 11 73 0 4 16 7 35 7 19 0 35 -3 35 -7z m150 -85 c14 -97 22
-96 34 2 11 85 14 90 47 90 l29 0 0 -145 c0 -138 -1 -145 -20 -145 -18 0 -20
7 -20 82 0 45 -2 79 -5 77 -2 -3 -10 -40 -16 -83 -11 -70 -14 -77 -33 -74 -18
3 -23 15 -37 88 l-17 85 -1 -87 c-1 -81 -3 -88 -21 -88 -19 0 -20 7 -20 145
l0 145 34 0 33 0 13 -92z m-806 -119 c38 -45 35 -101 -13 -218 -39 -97 -56
-119 -85 -108 -15 6 -15 10 -3 34 32 63 68 193 65 234 -4 59 -25 70 -80 40
-121 -66 -248 -254 -248 -366 0 -43 9 -44 153 -14 98 20 120 20 182 -4 3 -1
16 24 29 55 50 122 118 178 220 181 81 3 99 -12 98 -77 0 -55 -57 -167 -133
-262 -69 -87 -104 -94 -170 -33 -24 23 -34 27 -40 17 -43 -74 -170 -203 -231
-234 -85 -43 -149 -27 -151 38 -1 37 64 160 100 189 14 11 13 8 -4 -16 -24
-35 -63 -111 -63 -122 0 -4 9 3 20 17 l20 25 -15 -37 c-30 -75 -12 -99 42 -55
65 53 67 54 60 34 -11 -30 26 -4 77 55 25 29 46 49 46 45 0 -5 -28 -38 -62
-73 -58 -61 -67 -81 -22 -49 38 26 134 160 134 186 l-1 24 -17 -27 c-15 -25
-32 -37 -32 -23 0 3 12 27 27 54 16 27 25 52 22 56 -4 3 -55 -3 -113 -14 -59
-12 -120 -21 -135 -21 -41 0 -91 49 -91 89 0 96 144 337 234 392 22 13 50 19
93 19 56 0 63 -3 87 -31z m540 -42 c-1 -22 -17 -63 -44 -108 -24 -41 -54 -96
-68 -124 -13 -27 -38 -72 -56 -100 -35 -55 -64 -122 -65 -145 0 -8 -6 -39 -13
-68 l-13 -54 -27 22 c-16 12 -28 29 -28 38 0 39 113 294 160 362 9 14 15 30
13 37 -4 10 64 147 89 180 6 8 17 9 31 4 17 -7 22 -16 21 -44z m530 -50 c18
-13 18 -17 2 -78 -17 -69 -51 -155 -113 -289 -52 -110 -99 -230 -119 -302 -14
-53 -17 -57 -35 -47 -11 6 -23 17 -26 25 -5 14 35 159 43 152 2 -2 -3 -26 -11
-53 -18 -57 -19 -94 -1 -47 6 18 14 31 17 28 3 -3 15 15 27 42 11 26 43 96 71
157 40 88 48 112 38 124 -7 9 -8 12 -1 8 13 -8 36 37 39 76 3 44 -10 31 -40
-40 -16 -37 -30 -62 -32 -57 -2 6 8 37 22 68 14 32 24 60 23 62 -7 7 -76 -106
-102 -168 -15 -38 -34 -68 -41 -68 -6 0 -20 9 -30 20 -16 18 -17 27 -9 70 6
28 9 50 8 50 -2 0 -29 -52 -61 -115 -32 -63 -62 -115 -68 -115 -5 0 -17 5 -25
10 -13 8 2 43 88 215 91 179 122 230 122 196 0 -5 8 -8 18 -7 14 1 17 -7 16
-51 -1 -29 0 -53 1 -53 2 0 27 32 55 70 29 39 55 69 57 66 2 -2 -20 -37 -49
-78 -70 -94 -78 -108 -53 -88 40 32 116 145 111 164 -5 18 19 66 33 66 4 0 15
-6 25 -13z m244 -19 c7 -7 12 -27 12 -45 0 -33 0 -33 28 -20 15 8 32 12 39 10
7 -2 20 1 30 7 16 10 15 10 -4 5 -13 -4 -23 -4 -23 -1 0 3 18 10 41 16 73 20
115 -28 83 -97 -63 -134 -301 -433 -346 -433 -10 0 -18 -4 -18 -10 0 -16 -14
-12 -39 11 -27 26 -25 40 36 203 26 70 41 126 37 138 -4 12 3 33 19 56 14 20
33 64 42 97 10 33 19 63 22 68 6 11 27 9 41 -5z m-691 -100 c67 -73 78 -119
47 -194 -39 -92 -133 -204 -172 -204 -32 0 -85 33 -107 66 -21 32 -16 69 20
163 70 183 143 242 212 169z m501 -70 c7 -7 12 -21 12 -33 0 -26 -88 -297
-101 -310 -6 -6 -17 -2 -30 11 l-20 21 29 104 c17 57 37 130 46 162 17 58 37
72 64 45z"/>
<path d="M2765 3758 c-11 -6 -37 -24 -57 -40 -21 -17 -38 -26 -38 -22 0 4 -15
-7 -34 -25 -45 -43 -85 -159 -68 -196 14 -31 27 -31 66 -4 63 43 156 189 171
267 7 35 -4 41 -40 20z"/>
<path d="M3945 3783 c-76 -32 -112 -58 -120 -86 -4 -12 -29 -81 -56 -154 -27
-72 -49 -134 -49 -137 0 -3 6 -3 14 0 8 3 16 -1 18 -11 2 -11 17 0 53 40 28
30 49 55 47 55 -3 0 10 14 27 32 17 17 31 35 31 40 0 4 16 30 35 57 40 56 47
81 9 36 l-25 -30 13 30 c7 17 25 51 41 77 43 71 35 82 -38 51z"/>
<path d="M3087 3729 c-21 -12 -88 -151 -110 -229 -39 -134 73 -94 147 53 59
119 38 220 -37 176z"/>
</g>
</svg>
